<svg width="70" height="70" viewBox="0 0 70 70" fill="none" xmlns="http://www.w3.org/2000/svg">
<rect x="1.5" y="1.5" width="67" height="67" rx="33.5" fill="#61BCFF"/>
<rect x="1.5" y="1.5" width="67" height="67" rx="33.5" stroke="black" stroke-width="3"/>
<path d="M31.5531 22.841V29.682L27.9839 27.8974C26.0208 26.9456 24.1767 26.1128 23.8198 26.1128C22.4516 26.1128 23.4034 27.9569 25.9613 30.2174C27.8054 31.8235 28.4598 32.7158 27.9244 32.8943C27.4485 33.0727 23.9388 34.0245 20.0126 34.9763C12.6958 36.7609 11.2086 37.5343 12.3388 38.6645C12.7552 39.0809 15.6106 38.9025 21.9757 37.9507C26.9726 37.2368 31.1962 36.8204 31.3746 36.9989C31.5531 37.2368 30.5418 39.3189 29.1736 41.6984C27.7459 44.0778 26.5562 46.2194 26.4372 46.3978C26.3183 46.6358 26.6157 47.1117 27.0321 47.4686C27.7459 48.0635 28.3408 47.766 30.2444 46.1004C31.5531 44.9106 32.8618 43.9589 33.1593 43.9589C33.4567 43.9589 34.0516 45.7435 34.5275 47.9445C35.5387 53.0604 36.2526 54.6665 37.5613 54.6665C39.1674 54.6665 39.4649 52.8224 38.989 45.9814C38.751 42.5312 38.751 39.7948 39.0485 39.7948C39.3459 39.7948 41.7254 40.7466 44.3428 41.8768C49.5182 44.1373 51.1838 44.4348 51.1838 43.126C51.1838 41.9363 50.232 41.1035 45.6515 37.9507C43.4505 36.523 41.6659 35.1548 41.6659 34.9763C41.6659 34.7979 44.6997 33.7866 48.3879 32.7158C54.991 30.8122 57.7274 29.563 57.7274 28.4923C57.7274 27.6 53.9797 27.7784 48.031 28.8492C45.1756 29.3846 42.6177 29.682 42.4392 29.444C42.2608 29.2656 42.6772 27.7189 43.391 26.0533C46.0679 19.5692 44.4023 18.9743 40.2382 24.9825C38.6915 27.3025 37.1449 28.9682 36.9069 28.6707C36.669 28.4328 36.0146 26.0533 35.4198 23.4359C34.23 17.8441 33.4567 16 32.3264 16C31.7316 16 31.5531 17.5467 31.5531 22.841Z" fill="black"/>
</svg>
