<svg width="70" height="70" viewBox="0 0 70 70" fill="none" xmlns="http://www.w3.org/2000/svg">
<rect x="1.5" y="1.5" width="67" height="67" rx="33.5" fill="#FFDC58"/>
<rect x="1.5" y="1.5" width="67" height="67" rx="33.5" stroke="black" stroke-width="3"/>
<path d="M35.0761 18.1086C34.2873 18.7284 32.766 20.7004 31.7518 22.4471L29.8925 25.6586L23.8074 26.1094C16.7081 26.6728 15.2431 27.1236 14.398 28.9829C13.3838 31.1803 14.1726 32.7016 18.3421 36.9274C20.5395 39.0684 22.3425 41.2095 22.3425 41.6039C22.3425 41.9983 21.6663 44.5901 20.8775 47.2946C20.0324 50.0554 19.5253 52.7599 19.7506 53.267C20.2577 54.6756 22.3425 54.1122 27.6951 51.0696C30.1742 49.661 32.4843 48.4778 32.766 48.4778C33.1041 48.4778 34.8507 49.2666 36.7101 50.1681C40.6541 52.0838 42.5698 52.2529 44.3728 50.7879C45.4997 49.8864 45.7251 49.0976 45.8941 45.4916L46.1195 41.2095L49.6128 39.0121C54.1203 36.0259 56.036 34.2792 56.4867 32.4199C57.1628 29.6027 53.6695 27.687 47.8661 27.6307C44.4292 27.6307 42.7389 26.7855 42.2881 24.9825C41.6683 22.4471 40.0344 18.8974 38.9638 17.8832C37.7243 16.6437 36.8791 16.7 35.0761 18.1086ZM36.9918 25.715C36.9918 26.1657 36.5974 26.5038 36.1466 26.5038C35.1888 26.5038 35.1325 26.3911 35.6396 25.1515C36.034 24.1374 36.9918 24.4754 36.9918 25.715ZM26.8499 31.8564C26.8499 32.5889 25.4977 35.5188 25.1596 35.5188C24.4835 35.5188 21.2156 32.7016 21.2156 32.1382C21.2156 31.8564 21.779 31.5747 22.5115 31.462C23.6947 31.293 26.8499 31.5747 26.8499 31.8564ZM37.1608 32.0818C38.6258 32.6453 38.9075 33.265 39.5273 36.6457C39.8653 38.5613 39.809 38.674 36.8228 40.308L33.7239 41.942L31.4701 40.4207L29.16 38.8994L30.0052 36.4766C31.5265 32.0818 33.6675 30.7859 37.1608 32.0818ZM48.4859 33.4904C48.1478 34.3919 45.556 35.6315 44.8799 35.2371C44.6545 35.1244 44.3165 34.4483 44.1474 33.8285C43.8657 32.8143 44.1474 32.7016 46.3448 32.7016C48.1478 32.7016 48.7113 32.8706 48.4859 33.4904ZM27.4134 44.7591C27.4134 44.9282 27.188 45.2099 26.8499 45.3789C26.5682 45.548 26.2865 45.4353 26.2865 45.1536C26.2865 44.8155 26.5682 44.5338 26.8499 44.5338C27.188 44.5338 27.4134 44.6465 27.4134 44.7591Z" fill="black"/>
</svg>
