<svg width="70" height="70" viewBox="0 0 70 70" fill="none" xmlns="http://www.w3.org/2000/svg">
<rect x="1.5" y="1.5" width="67" height="67" rx="33.5" fill="#FF6258"/>
<rect x="1.5" y="1.5" width="67" height="67" rx="33.5" stroke="black" stroke-width="3"/>
<path d="M37.8955 13.8193C35.0661 15.0971 31.9629 19.3412 30.457 23.9959L29.9094 25.73L27.2625 25.6844C23.7943 25.6388 21.9233 26.5971 20.7824 29.0614C17.7249 35.861 24.0225 49.9165 32.83 55.9859C35.9788 58.1764 36.3895 57.9939 39.447 53.4304C44.8319 45.3986 47.3875 40.0594 49.076 33.488C52.3617 20.3908 46.4748 9.94038 37.8955 13.8193ZM43.1435 16.8312C45.0145 17.7896 46.3835 20.9384 46.703 24.9086C47.1593 31.4344 44.1474 39.9225 37.8955 49.7796C36.2526 52.3808 34.7466 54.48 34.5185 54.48C33.5601 54.48 28.5859 48.3193 26.8975 45.0792C21.5582 34.857 22.2427 27.0534 28.3121 29.3808C29.1336 29.7003 29.5443 30.2479 29.7268 31.5257C30.6395 36.9562 33.3776 41.2459 35.9332 41.2459C37.576 41.2459 38.6256 39.7399 38.6256 37.3669C38.58 34.9483 37.3022 32.1645 34.9748 29.6546L33.0582 27.5554L33.5601 25.4562C34.8379 20.4364 38.2149 16.238 41.0443 16.1467C41.5006 16.1467 42.4589 16.4662 43.1435 16.8312Z" fill="black"/>
</svg>
