<svg width="95" height="97" viewBox="0 0 95 97" fill="none" xmlns="http://www.w3.org/2000/svg">
<g filter="url(#filter0_d_211_16)">
<rect x="1" y="1" width="90.0111" height="90.0111" rx="45.0056" fill="#FFDC58" stroke="black" stroke-width="2"/>
<path fill-rule="evenodd" clip-rule="evenodd" d="M44.7978 73.5652C44.7973 73.5561 44.7899 73.549 44.7809 73.5488C43.6103 73.5196 42.4123 73.4053 41.2333 73.0748C40.8025 72.9542 40.3623 72.8355 39.9483 72.6353C39.219 72.2884 38.5414 71.7923 38.008 71.1755C37.7388 70.8628 37.5081 70.5495 37.3017 70.1783C37.0854 69.8072 36.9592 69.3764 36.9088 68.9443C36.8578 68.5594 36.8989 68.1634 36.9934 67.7898C37.0959 67.4149 37.2787 67.0736 37.492 66.7615C38.0645 65.9757 39.035 65.5051 39.9408 65.5915C40.2249 65.6095 40.1845 65.7562 40.0024 65.9788C39.8078 66.1759 39.5454 66.5775 39.2538 66.7976C38.9735 66.9878 38.8112 67.2744 38.6303 67.4914C38.463 67.7282 38.3555 67.9881 38.3076 68.2523C38.2361 68.5122 38.2231 68.7913 38.2784 69.0817C38.3356 69.3708 38.4792 69.6586 38.6744 69.9987C38.9119 70.376 39.2389 70.7043 39.6163 70.9723C40.0005 71.2334 40.4295 71.436 40.8715 71.6132C41.8488 72.0005 42.948 72.1696 44.0583 72.2399C44.744 72.2791 45.4403 72.289 46.1255 72.2498C47.1656 72.1889 48.2144 72.0596 49.1997 71.7543C49.9719 71.5386 50.6868 71.2091 51.3688 70.8336C51.5205 70.7522 51.6617 70.6614 51.8096 70.5737C52.3592 70.248 52.5656 70.1889 52.8155 70.2784C52.8715 70.2983 52.9355 70.3095 52.9803 70.335C53.1214 70.4046 53.017 70.7211 52.6371 71.0817C52.0707 71.6076 51.4093 72.0739 50.6893 72.4482C50.3287 72.6322 49.9582 72.8112 49.5728 72.948C49.1836 73.0705 48.7869 73.1737 48.3872 73.2545C47.207 73.5033 45.9998 73.5833 44.8151 73.5815C44.8059 73.5815 44.7983 73.5744 44.7978 73.5652V73.5652Z" fill="#231F20"/>
<path fill-rule="evenodd" clip-rule="evenodd" d="M48.006 74.0073C48.0044 74.0028 47.9996 74.0002 47.9949 74.0014C47.3603 74.1694 46.7147 74.2894 46.0672 74.3885C45.8279 74.4208 45.5935 74.4519 45.3535 74.4842C44.508 74.5451 43.6575 74.5265 42.8195 74.409C42.4464 74.3599 42.0747 74.294 41.7079 74.2162C41.2428 74.0987 40.7542 73.9794 40.3575 73.6735C40.2313 73.584 40.3314 73.469 40.5105 73.3981C40.6939 73.3241 40.9301 73.3061 41.1664 73.3813C41.992 73.6909 42.8972 73.8302 43.8254 73.9116C44.3837 73.9539 44.9674 73.8923 45.535 73.8103C46.1629 73.7388 46.7859 73.6095 47.4032 73.4553C47.7837 73.3645 48.1573 73.2396 48.5316 73.1239L49.3746 72.8249C49.65 72.713 49.9236 72.5942 50.1934 72.4718C50.6062 72.2678 50.9898 72.0266 51.3896 71.8121L51.6476 71.6611C51.9771 71.4826 52.1076 71.469 52.2357 71.5231C52.2649 71.5361 52.2991 71.5448 52.3215 71.561C52.3955 71.6126 52.3028 71.7556 52.0883 71.9433C51.4561 72.5066 50.6933 72.9704 49.8794 73.3328C49.2846 73.6176 48.6558 73.837 48.017 74.0132C48.0124 74.0144 48.0075 74.0119 48.006 74.0073V74.0073Z" fill="#231F20"/>
<path fill-rule="evenodd" clip-rule="evenodd" d="M49.2375 78.0023C49.2423 78.0061 49.2491 78.006 49.2537 78.002C49.4524 77.8302 49.6227 77.5883 49.7792 77.335C49.8401 77.2436 49.8625 77.1273 49.9197 77.0303C50.1149 76.6778 50.2871 76.2967 50.458 75.9026C50.5401 75.731 50.5998 75.5476 50.6669 75.3648C50.7577 75.1329 50.8161 74.8693 51.0773 74.6797C51.1519 74.6213 51.2377 74.7381 51.316 74.8799C51.3906 75.0297 51.4814 75.1541 51.4577 75.2747C51.3446 75.6638 51.2955 76.1687 51.0151 76.6057C50.8634 76.8718 50.8012 77.1882 50.6657 77.4792C50.5221 77.8 50.3294 78.109 50.1136 78.4024C49.9582 78.5715 49.8221 78.7512 49.6331 78.8917V78.8917C49.4978 79.0017 49.3526 79.0987 49.1992 79.1816L49.196 79.1833C49.0468 79.279 48.8789 79.3275 48.7161 79.3891C48.5911 79.4469 48.4661 79.486 48.3362 79.5221C48.2088 79.5557 48.0745 79.6166 47.9427 79.6272C47.8848 79.6346 47.8277 79.6359 47.7686 79.6309C47.5504 79.6035 47.4863 79.5376 47.4702 79.3182C47.4658 79.2716 47.459 79.2262 47.459 79.1839C47.4596 79.0508 47.5585 78.8836 47.6853 78.8233C48.0738 78.6306 48.3629 78.5672 48.6458 78.4292C48.8319 78.3067 49.0451 78.2054 49.2196 78.0041C49.2241 77.9988 49.232 77.998 49.2375 78.0023V78.0023Z" fill="#231F20"/>
<path fill-rule="evenodd" clip-rule="evenodd" d="M39.4617 67.0463C39.4565 67.0389 39.4469 67.0361 39.4385 67.0395C39.2856 67.1026 39.1067 67.1729 38.9518 67.2928C38.8946 67.3382 38.8604 67.4029 38.8032 67.4495C38.5943 67.613 38.3885 67.8045 38.2368 68.0308C38.1809 68.1303 38.1461 68.2478 38.1529 68.3503C38.1492 68.4964 38.2014 68.5748 38.0932 68.6873C38.0547 68.7252 37.8147 68.8378 37.5467 68.8664C37.2881 68.9099 36.9499 68.7862 36.9232 68.6146C36.8529 68.3074 36.9132 68.0389 37.0071 67.8151C37.0979 67.5857 37.2384 67.3973 37.4075 67.2381C37.6139 67.056 37.7053 66.8054 37.8856 66.6121C38.0857 66.4044 38.3071 66.2185 38.5595 66.0662C38.7074 65.9674 38.8828 65.9002 39.0481 65.8263V65.8263C39.308 65.7178 39.5923 65.6704 39.8731 65.6492C39.8764 65.6489 39.8797 65.6487 39.8831 65.6485C39.9968 65.6466 40.1131 65.6192 40.2318 65.6143C40.3481 65.6199 40.4712 65.6261 40.5931 65.646C40.649 65.6497 40.69 65.6802 40.7348 65.7081C40.8902 65.8312 40.894 65.9388 40.7827 66.1607C40.7572 66.2117 40.7336 66.2621 40.705 66.3093C40.6092 66.4647 40.4656 66.5754 40.3543 66.6351C40.0087 66.8303 39.9906 66.8875 39.8445 66.9217C39.7534 66.9421 39.6224 66.9821 39.4867 67.0524C39.478 67.0569 39.4673 67.0543 39.4617 67.0463V67.0463Z" fill="#231F20"/>
<path fill-rule="evenodd" clip-rule="evenodd" d="M28.7842 56.592C28.7874 56.5883 28.7874 56.5827 28.7841 56.579C27.2968 54.8537 25.9566 52.9852 24.8849 50.961C24.6778 50.5973 24.4982 50.2193 24.3216 49.8395C24.1345 49.4646 23.966 49.0822 23.8224 48.6881C22.7257 45.9464 22.2775 42.9529 22.4963 40.0266C22.5317 39.3763 22.6399 38.7304 22.7183 38.0844C22.8575 37.4491 22.9352 36.8 23.1186 36.1808C23.4848 34.5712 24.1102 32.971 25.0795 31.6194C25.3841 31.1998 25.4114 31.3079 25.2635 31.7238C25.1093 32.1398 24.8507 32.8926 24.5075 33.7468C24.3558 34.1267 24.2215 34.514 24.1015 34.9044C23.9803 35.293 23.8982 35.7021 23.7826 36.0962C23.6694 36.4929 23.5675 36.8914 23.4997 37.298C23.4289 37.7033 23.3219 38.1031 23.279 38.5128C23.0192 40.1404 22.9999 41.8015 23.1584 43.4522C23.3468 45.4323 23.9635 47.4397 24.8239 49.2849C25.7596 51.3222 26.9582 53.2464 28.3676 55.0114C29.2237 56.1062 30.1494 57.15 31.123 58.146C32.5908 59.6629 34.1656 61.0928 35.7708 62.4475C37.0198 63.5013 38.2905 64.4767 39.547 65.5013C39.8224 65.7288 40.0996 65.9414 40.3682 66.1833C41.3735 67.0661 41.6452 67.4092 41.7447 67.7157C41.7683 67.7847 41.8081 67.8668 41.8137 67.9141C41.8298 68.0757 41.381 67.7648 40.6306 67.1543C38.3894 65.3595 35.9629 63.5006 33.6564 61.4621C31.9476 59.9483 30.2903 58.347 28.7842 56.6051C28.7809 56.6013 28.7809 56.5958 28.7842 56.592V56.592Z" fill="#231F20"/>
<path fill-rule="evenodd" clip-rule="evenodd" d="M25.808 30.4392C25.8182 30.4437 25.8302 30.4406 25.8368 30.4317C26.8129 29.1305 27.9615 27.9854 29.2143 26.9803C30.5012 26.0117 31.8789 25.1774 33.3343 24.5091C36.255 23.211 39.4431 22.5035 42.6535 22.6042C43.8248 22.6403 44.9936 22.7752 46.1238 22.9996C46.6933 23.1121 47.2609 23.2476 47.8235 23.4136C48.3862 23.5765 48.9364 23.8146 49.4897 24.0179C51.407 24.856 53.1129 26.1466 54.4732 27.7052C55.8397 29.2632 56.8698 31.0773 57.5761 32.9865C59.011 36.8087 59.2864 40.9579 58.7517 44.9219C58.5379 46.6881 58.1624 48.4307 57.6986 50.1398C57.2503 51.8556 56.6616 53.523 56.0362 55.16C55.2298 57.2638 54.2625 59.3067 53.1838 61.2843C52.1139 63.2669 50.8978 65.1662 49.578 66.9784C48.7505 68.1068 48.7095 67.8444 49.177 66.7428C49.4163 66.1963 49.7545 65.4229 50.1866 64.5109C50.6031 63.5895 51.1192 62.5333 51.7085 61.4074C52.7592 59.4124 53.6588 57.349 54.5198 55.28C55.3629 53.2022 56.0828 51.0773 56.6261 48.9113C57.7228 44.5905 58.0616 40.0496 57.0172 35.717C56.6989 34.4295 56.2519 33.1606 55.6625 31.9545C55.0707 30.749 54.3041 29.6287 53.4095 28.6309C52.5118 27.6368 51.4754 26.759 50.3047 26.1099C49.1359 25.4596 47.8944 24.9617 46.5714 24.6552C40.7834 23.2066 34.3315 24.713 29.6955 28.519C28.2786 29.6915 27.0471 31.0941 26.1431 32.6875C25.9404 33.0972 25.7228 33.5013 25.5295 33.9147L25.0539 35.2004C24.8164 36.0956 24.569 36.9921 24.4484 37.9122L24.362 38.4313L24.3184 38.9561L24.2351 40.0061L24.242 41.0599L24.2476 41.5865L24.2967 42.1118C24.3806 43.5181 24.7051 44.9001 25.1043 46.251C25.5121 47.6039 26.1008 48.8964 26.7412 50.1565C27.4114 51.403 28.1711 52.5998 28.9973 53.7468C31.5948 57.3079 34.7928 60.2666 38.0716 63.1631C38.7965 63.8015 39.5189 64.4114 40.2407 65.0754C42.9221 67.5093 43.6507 68.578 43.7906 69.4434C43.8211 69.6411 43.854 69.8892 43.8378 70.0017C43.8217 70.0993 43.7608 70.09 43.6563 70.0023C43.5469 69.9141 43.4331 69.7431 43.2006 69.523C42.7735 69.0766 42.0635 68.3816 41.0806 67.5193C38.135 64.9909 34.9656 62.4195 32.0666 59.4447C29.1733 56.4804 26.4652 53.109 24.6852 49.1475C24.0219 47.6828 23.5251 46.1329 23.1807 44.5457C22.8295 42.9561 22.7399 41.3117 22.7903 39.6834C22.8506 38.049 23.1751 36.4438 23.5985 34.8777C24.0896 33.2925 24.836 31.7961 25.7787 30.4475C25.7853 30.4381 25.7975 30.4347 25.808 30.4392V30.4392Z" fill="#231F20"/>
<path fill-rule="evenodd" clip-rule="evenodd" d="M41.9002 72.5338C41.8994 72.5431 41.9057 72.5515 41.9149 72.5532C43.4949 72.8402 45.1744 72.7917 46.8213 72.5235C47.42 72.4184 48.0268 72.2518 48.6074 72.1243C49.5841 71.8713 50.5794 71.4063 51.4877 70.8673C52.3942 70.3196 53.2397 69.6487 53.8291 68.8337C54.3258 68.0989 54.442 67.2179 54.0013 66.4961C53.7271 66.0379 53.267 65.6599 52.7709 65.3497C52.2642 65.0513 51.724 64.7796 51.1495 64.5751C50.7927 64.4551 50.8462 64.3382 51.2136 64.2338C51.5679 64.1529 52.2972 64.0392 53.0401 64.3705C53.6885 64.6602 54.327 65.0532 54.8443 65.6848C54.9758 65.8363 55.0815 66.0101 55.173 66.1943C55.3673 66.5858 55.4909 67.0123 55.5257 67.4479V67.4479C55.5313 67.6643 55.494 67.8782 55.4716 68.0926C55.3074 68.9332 54.8704 69.6003 54.3967 70.1529C53.9192 70.7131 53.3572 71.1352 52.779 71.5163C52.0852 71.9664 51.3659 72.3724 50.613 72.7342C50.2363 72.9145 49.8496 73.0805 49.4486 73.2241C49.2503 73.2993 49.0351 73.3541 48.83 73.4181L48.2313 73.5486C46.4856 73.9372 44.6758 74.1405 42.8661 73.9882C41.7538 73.8906 40.6472 73.6574 39.5934 73.2496C38.7977 72.9319 38.0473 72.4818 37.387 71.9111C36.7361 71.3304 36.204 70.5813 35.941 69.7122C35.7507 69.0389 35.7221 68.2816 35.9515 67.594C36.1878 66.9089 36.6298 66.3189 37.157 65.8663C37.3895 65.6655 37.6251 65.4815 37.8894 65.3273C38.3768 65.0395 38.743 64.9543 39.0003 64.922C39.2627 64.9015 39.4318 64.9612 39.5835 65.0861C39.6525 65.1414 39.7346 65.1906 39.7793 65.249C39.9298 65.451 39.5798 65.742 39.0035 66.1057C38.1449 66.6341 37.4231 67.3659 37.226 68.1467C37.1067 68.5359 37.1284 68.9201 37.2198 69.3261C37.3305 69.7321 37.5686 70.1281 37.8595 70.4974C38.782 71.5871 40.3102 72.2429 41.8854 72.5144C41.8947 72.516 41.9011 72.5245 41.9002 72.5338V72.5338Z" fill="#231F20"/>
<path fill-rule="evenodd" clip-rule="evenodd" d="M40.2435 69.5938C40.2408 69.6018 40.2446 69.6105 40.2524 69.6138C41.1279 69.9786 42.1008 70.2172 43.0959 70.3341C43.4615 70.3789 43.8314 70.3727 44.2 70.387C45.5019 70.4442 46.8329 70.3478 48.108 70.0227C48.6719 69.8772 49.2265 69.6776 49.7344 69.4165C50.3878 69.0746 50.9566 68.6332 51.4615 68.1427C51.6219 67.9903 51.7412 68.0774 51.7636 68.3472C51.7997 68.6214 51.6865 69.0982 51.3147 69.4364C49.9955 70.5847 48.3629 71.12 46.7378 71.2791C45.7642 71.3717 44.7602 71.521 43.7586 71.4924C42.6613 71.4594 41.5578 71.3164 40.4954 70.9739C39.8432 70.7637 39.2053 70.4827 38.6166 70.1035C38.1733 69.8131 37.7593 69.4606 37.4186 69.0367C37.2594 68.8159 37.0996 68.5959 36.9809 68.3491C36.8448 68.1277 36.7453 67.7752 36.7515 67.4756C36.7583 66.9888 36.9442 66.5567 37.1823 66.1961C37.4242 65.8343 37.7276 65.5284 38.0776 65.2797C38.2293 65.1666 38.3872 65.0665 38.5613 64.9813C39.2252 64.686 39.5286 64.8004 39.6778 65.0628C39.7133 65.1237 39.7549 65.1821 39.7723 65.2418C39.8189 65.4439 39.6038 65.6285 39.2843 65.8044C38.7969 66.0612 38.3381 66.4815 38.0888 66.9167C37.9638 67.1318 37.9091 67.3419 37.9215 67.4805C37.9234 67.5527 37.9452 67.608 37.9731 67.6664C38.0067 67.7385 38.1 67.8884 38.1565 67.9978C38.5913 68.6768 39.3526 69.2192 40.2344 69.5737C40.2423 69.5769 40.2463 69.5857 40.2435 69.5938V69.5938Z" fill="#231F20"/>
<path fill-rule="evenodd" clip-rule="evenodd" d="M43.8178 75.2821C43.8166 75.2914 43.8227 75.3002 43.8319 75.3023C44.6474 75.4917 45.5337 75.52 46.4175 75.4403C46.7439 75.4179 47.0609 75.3272 47.3855 75.2737C48.5337 75.0866 49.6683 74.7291 50.7538 74.2535C51.23 74.0322 51.6857 73.7605 52.0986 73.4515C52.6438 73.0617 53.0777 72.5786 53.526 72.1298C53.677 71.9942 53.8119 72.0775 53.876 72.3355C53.9058 72.463 53.9313 72.6495 53.8934 72.8435C53.8486 73.0231 53.7622 73.2215 53.6242 73.3993C52.5891 74.5531 51.3009 75.38 49.8741 75.8158C49.0193 76.0608 48.1682 76.417 47.2667 76.573C46.2826 76.7515 45.2692 76.8143 44.2577 76.7129C43.6373 76.647 43.0125 76.4997 42.4274 76.2914C41.5403 75.9656 40.7022 75.4658 40.0072 74.8143C39.4644 74.3157 38.9652 73.7549 38.6065 73.0965C38.5331 72.9498 38.461 72.8056 38.3995 72.652C38.2198 72.0657 38.3224 71.8413 38.5686 71.6598C38.6251 71.6181 38.6761 71.5696 38.7302 71.5423C38.9037 71.4509 39.1673 71.6256 39.396 71.9445C39.7324 72.4201 40.0252 72.8683 40.3591 73.2793C40.6941 73.689 41.0889 74.0421 41.5365 74.3411C42.1897 74.7795 42.9992 75.1007 43.8032 75.2616C43.8127 75.2635 43.8191 75.2725 43.8178 75.2821V75.2821Z" fill="#231F20"/>
<path fill-rule="evenodd" clip-rule="evenodd" d="M40.3784 37.1435C40.3868 37.141 40.3922 37.133 40.3916 37.1243C40.3702 36.8175 40.3687 36.5029 40.3858 36.1811L40.4225 35.6769L40.4828 35.3132C40.5176 35.1821 40.5649 35.0552 40.6053 34.9259C40.7781 34.4062 41.1822 34.068 41.6609 33.9691C42.1446 33.8734 42.6488 34.0394 43.0368 34.3925C43.1306 34.4839 43.2289 34.5778 43.3066 34.6816C43.393 34.786 43.4751 34.8874 43.5105 34.9551C43.6093 35.1093 43.6877 35.261 43.7623 35.4127C43.9102 35.7148 44.024 36.0133 44.126 36.3104C44.3181 36.9097 44.4791 37.5314 44.5518 38.1482C44.8583 40.6157 44.4872 43.1037 43.4073 45.3387C43.209 45.7459 42.9771 46.1401 42.7209 46.5218C42.591 46.7139 42.4169 46.9079 42.264 47.0981C42.0818 47.2728 41.8966 47.4512 41.6883 47.6017C40.8372 48.2184 39.697 48.3807 38.7626 48.1594C37.9227 47.9871 37.1779 47.6309 36.5021 47.2057C35.8251 46.7755 35.2164 46.275 34.6656 45.6931C34.1061 45.0925 33.6715 44.4335 33.306 43.7335C32.9448 43.0328 32.6476 42.2924 32.4984 41.491C32.3517 40.7002 32.3249 39.8118 32.7122 38.9893C32.8956 38.5896 33.148 38.2315 33.5148 37.9293C33.8742 37.6266 34.3765 37.4512 34.8534 37.4662C35.8207 37.4985 36.5494 38.081 37.0989 38.6126C37.6665 39.1653 38.1359 39.7919 38.5462 40.4429C39.9967 42.7643 40.8074 45.3679 41.577 47.8678C42.08 49.4823 42.5214 51.1404 42.8024 52.8339C42.9342 53.6819 43.0355 54.5373 43.0616 55.3965C43.0877 56.2563 43.0436 57.1149 42.9628 57.9654C42.8335 59.026 42.6768 58.8563 42.512 57.9641C42.4213 57.4879 42.3019 56.8699 42.1645 56.1525C42.0004 55.4121 41.8356 54.5591 41.6783 53.6303C41.3973 51.9828 40.928 50.3701 40.425 48.7462C39.9351 47.1037 39.4458 45.4718 38.8515 43.9175C38.2559 42.3676 37.5316 40.8476 36.4878 39.6688C36.2304 39.376 35.9395 39.0975 35.6665 38.9097C35.383 38.7226 35.0803 38.607 34.8235 38.6076C34.5661 38.6008 34.3417 38.6928 34.1241 38.9029C33.9065 39.1143 33.7219 39.4307 33.6286 39.7372C33.3868 40.5137 33.5733 41.5103 33.9401 42.408C34.305 43.3132 34.8509 44.1967 35.5155 44.8917C36.2105 45.5955 37.0467 46.201 37.9326 46.6026C38.8142 46.9843 39.7878 47.1659 40.5493 46.8096C40.9702 46.6269 41.3321 46.3048 41.6311 45.9007C41.9351 45.4612 42.2037 44.9825 42.4262 44.4802C42.859 43.4693 43.1474 42.3788 43.2699 41.271C43.4036 40.1631 43.3756 39.036 43.1797 37.9523C43.0691 37.4158 42.923 36.8867 42.716 36.3807C42.6134 36.1314 42.4971 35.8927 42.3659 35.6875C42.2571 35.5165 42.2018 35.4512 42.0744 35.3785C41.9239 35.2933 41.7349 35.3835 41.6752 35.5395C41.6423 35.6129 41.6143 35.6962 41.6025 35.7714C41.5751 35.8958 41.5447 36.0767 41.5391 36.2352C41.5068 36.8979 41.582 37.5949 41.7113 38.2738C41.8425 38.9533 42.0302 39.6272 42.2926 40.2588C42.5487 40.8743 42.8975 41.5196 43.3433 41.828C43.7119 42.0537 44.167 42.1643 44.6041 42.0816C45.0467 42.007 45.4813 41.7696 45.8624 41.4568C46.6202 40.8246 47.2276 39.9212 47.5186 38.9825C47.6622 38.538 47.6665 38.0269 47.6025 37.5426C47.5329 37.0658 47.3588 36.5914 47.0734 36.3484C46.7781 36.1034 46.4834 36.1065 46.172 36.4006C45.8586 36.7009 45.6031 37.1547 45.4104 37.6185C45.2512 37.9809 45.1586 38.3502 45.0672 38.7581C44.9646 39.1528 44.8963 39.5557 44.8304 39.9579C44.7116 40.7636 44.6401 41.575 44.6227 42.3869C44.586 44.0108 44.7091 45.6334 44.9907 47.233C45.1151 47.938 45.2699 48.6207 45.4458 49.3182C45.7666 50.6138 46.0433 51.4463 46.1925 52.0487C46.3492 52.6486 46.374 53.0229 46.3286 53.3586C46.3075 53.5115 46.305 53.7049 46.2665 53.8075C46.167 54.1482 45.3973 53.2479 44.7073 51.307C43.7082 48.4348 43.2083 45.2908 43.3451 42.0885C43.388 41.289 43.4632 40.4851 43.5975 39.6844C43.6728 39.2859 43.7175 38.8805 43.8139 38.482L43.9457 37.8746C44.0041 37.6452 44.0725 37.4388 44.1483 37.2281C44.3044 36.8109 44.489 36.4006 44.7601 35.9859C45.0312 35.5905 45.393 35.1037 46.1807 34.842C46.5562 34.7568 46.974 34.7487 47.3277 34.9209C47.7013 35.0434 47.9674 35.2722 48.1844 35.5128C48.6146 36.0064 48.7756 36.5243 48.8869 37.0067C49.0243 37.7347 49.0417 38.4018 48.8571 39.1721C48.6631 39.8734 48.3554 40.4702 47.9824 41.0266C47.6056 41.5787 47.1574 42.0854 46.6022 42.5143C46.0501 42.9352 45.3613 43.2958 44.5469 43.3605C44.3485 43.3897 44.1384 43.3543 43.9364 43.3449C43.7343 43.3194 43.5385 43.2554 43.342 43.2044C43.158 43.1298 42.9808 43.0415 42.8036 42.9545C42.6053 42.8382 42.4337 42.6971 42.2901 42.5566C41.743 41.9853 41.462 41.3903 41.2115 40.7985C40.7433 39.6132 40.4633 38.42 40.3652 37.1628C40.3646 37.1541 40.37 37.146 40.3784 37.1435V37.1435Z" fill="#231F20"/>
<path fill-rule="evenodd" clip-rule="evenodd" d="M65.0222 38.6407C65.0079 38.7495 64.8643 38.7017 64.6411 38.5699C64.5697 38.5282 64.4012 38.3547 64.3956 38.3118C64.3844 38.2285 64.3751 38.1459 64.38 38.075C64.38 38.0321 64.6623 37.5814 64.7624 37.4228C64.8556 37.268 64.9781 37.1431 65.1111 37.0312C65.3754 36.7962 65.6582 36.5779 65.9573 36.379C66.0238 36.3355 66.0984 36.3044 66.178 36.2839C66.4553 36.2186 66.694 36.0961 66.9302 35.9531C66.97 35.9301 67.016 35.9183 67.0384 35.8586C67.0676 35.7505 67.7782 35.4688 67.8864 35.4819C68.1457 35.4925 68.3931 35.4794 68.6449 35.5111C68.6803 35.5155 68.7133 35.49 68.7537 35.5397C68.8463 35.6541 68.9134 35.623 68.9874 35.623C69.0888 35.6205 69.192 35.6323 69.2952 35.6659C69.3461 35.6821 69.4002 35.7486 69.4512 35.8008C69.4972 35.8474 69.4854 36.034 69.473 36.0551C69.4357 36.1166 69.4755 36.2006 69.4842 36.277V36.277C69.4906 36.3301 69.4762 36.3801 69.4383 36.4179C69.3987 36.4573 69.3409 36.5105 69.2799 36.5646C69.1034 36.7212 68.8677 36.8488 68.648 36.9348V36.9348C68.4751 37.0032 68.3005 37.0852 68.2675 37.1107V37.1107C68.1949 37.16 68.0976 37.1275 68.0212 37.1706C67.9864 37.1901 67.9469 37.2131 67.9064 37.2369C67.7131 37.3507 67.5177 37.5422 67.2983 37.4961C67.289 37.4942 67.2795 37.4917 67.2697 37.4887C67.2392 37.4806 67.2212 37.4974 67.2013 37.5099C67.0303 37.6168 66.8345 37.6808 66.6449 37.7654C66.5498 37.8108 66.4683 37.8779 66.3807 37.9357C66.3645 37.9463 66.3402 37.9444 66.3203 37.9494C66.2955 37.9556 66.2675 37.9575 66.2482 37.9724C66.0456 38.1179 65.8062 38.2242 65.6359 38.4163C65.5948 38.4561 65.3026 38.5487 65.261 38.6053C65.2367 38.6345 65.0278 38.596 65.0222 38.6407" fill="#231F20"/>
<path fill-rule="evenodd" clip-rule="evenodd" d="M59.0318 24.7881C59.0168 24.9 58.8645 24.8491 58.632 24.7148C58.558 24.6719 58.3827 24.4941 58.3759 24.4499C58.3628 24.3629 58.3516 24.2765 58.3541 24.2019C58.3541 24.1571 58.6245 23.6747 58.7153 23.5C58.8011 23.3315 58.918 23.1947 59.0448 23.0704C59.3041 22.8186 59.5807 22.5879 59.8555 22.3666C59.9171 22.3181 59.9879 22.2808 60.0663 22.2584C60.3348 22.1789 60.5499 22.0297 60.7439 21.855C60.7762 21.8257 60.8173 21.8077 60.8216 21.7412C60.8328 21.6318 61.3855 21.2221 61.475 21.2016C61.7075 21.1531 61.9164 21.071 62.1365 21.0014C62.1688 20.9933 62.1844 20.9585 62.2453 20.992C62.3871 21.0704 62.4275 21.0113 62.4896 20.9815C62.5761 20.9392 62.665 20.9007 62.77 20.8814C62.8222 20.8714 62.9087 20.9063 62.9851 20.9274C63.0548 20.9467 63.1673 21.1214 63.1698 21.1487C63.1766 21.2264 63.2661 21.2811 63.3233 21.3458C63.3426 21.3676 63.3681 21.3962 63.3811 21.4154V21.4154C63.6748 21.8091 62.9444 22.3626 62.5868 22.6993C62.524 22.7584 62.4771 22.8038 62.4623 22.8217C62.43 22.8609 62.369 22.8609 62.3168 22.8714C62.2919 22.8789 61.8095 23.3352 61.7877 23.3439C61.6659 23.4042 61.5844 23.5199 61.4054 23.4919C61.37 23.4863 61.3513 23.5062 61.3308 23.523C61.1542 23.6641 60.9429 23.7511 60.7427 23.8537C60.642 23.9066 60.5605 23.9861 60.4685 24.0502C60.4517 24.0626 60.425 24.0601 60.4045 24.0663C60.3777 24.0738 60.3473 24.0757 60.3274 24.0925C60.1272 24.2665 59.863 24.3623 59.6864 24.5643C59.6429 24.6053 59.3289 24.6955 59.2854 24.7539C59.2593 24.7838 59.038 24.7421 59.0318 24.7881" fill="#231F20"/>
<path fill-rule="evenodd" clip-rule="evenodd" d="M50.9808 77.9173C50.9744 77.9137 50.9663 77.9155 50.9621 77.9215C50.6348 78.3874 50.2463 78.8568 49.7305 79.2227C49.5346 79.3477 49.3512 79.4975 49.1249 79.5758C48.7364 79.7369 48.2794 79.7779 47.8834 79.7151C47.4818 79.6542 47.1181 79.5174 46.7923 79.3408C46.5026 79.1854 46.2229 79.0256 45.9568 78.8534C45.7883 78.7403 45.6155 78.6315 45.4594 78.5028C45.3096 78.366 45.1834 78.2031 45.0783 78.0247C45.0143 77.9116 45.1324 77.8196 45.3227 77.7661V77.7661C45.7501 77.6525 46.1546 77.9006 46.5307 78.1333C46.9484 78.3917 47.3668 78.6088 47.7833 78.7695C48.165 78.9069 48.5238 78.8018 48.8732 78.6085C49.2543 78.4021 49.5931 78.0595 49.8853 77.6536C50.0687 77.4067 50.2322 77.132 50.3889 76.8528C50.6208 76.4238 50.8551 75.9812 51.0578 75.5236C51.212 75.1674 51.3171 74.7857 51.4855 74.422C51.5235 74.3418 51.5521 74.2579 51.5962 74.1801C51.7777 73.9004 51.9238 73.8668 52.1856 73.9744C52.2421 73.9967 52.2975 74.0123 52.3422 74.0347C52.4778 74.0993 52.6065 74.3499 52.5542 74.5668C52.4075 75.2178 52.1358 75.8258 51.8107 76.4692C51.575 76.943 51.3094 77.4265 50.9998 77.9126C50.9957 77.919 50.9874 77.9211 50.9808 77.9173V77.9173Z" fill="#231F20"/>
<path fill-rule="evenodd" clip-rule="evenodd" d="M42.5798 17.7401C42.6488 17.8377 42.5139 17.9266 42.2708 18.0081C42.1931 18.0342 41.9562 18.0379 41.9195 18.0112C41.8499 17.9589 41.7796 17.9067 41.728 17.8533C41.7001 17.8191 41.5098 17.2944 41.4184 17.1221C41.3357 16.9537 41.2922 16.7839 41.2562 16.6136C41.1841 16.2679 41.0777 15.9291 41.0174 15.5859C41.0019 15.5101 41.0038 15.4318 41.0174 15.3516C41.0678 15.0749 41.0205 14.8107 40.9316 14.5545C40.9167 14.5116 40.9155 14.465 40.8533 14.4333C40.8292 14.4218 40.8016 14.3769 40.774 14.3131C40.571 13.844 40.6699 13.3165 40.7346 12.8094V12.8094C40.7389 12.7734 40.7122 12.7423 40.7657 12.6975C40.89 12.5925 40.8458 12.5272 40.8546 12.4482C40.8565 12.4206 40.8582 12.3929 40.8604 12.3651C40.8734 12.1981 40.9609 12.0553 41.061 11.921V11.921C41.1045 11.8626 41.2307 11.8564 41.2543 11.8669C41.3121 11.9005 41.3712 11.8464 41.4246 11.8284C41.4433 11.8222 41.4675 11.8141 41.485 11.8122C41.5138 11.8068 41.6642 11.9033 41.8163 12.0157C42.0685 12.2022 42.2306 12.4868 42.3566 12.774V12.774C42.4536 12.9947 42.5592 13.226 42.5866 13.272V13.272C42.6445 13.3661 42.6068 13.4892 42.6421 13.5939C42.7134 13.8057 42.8314 14.1564 42.8309 14.1784C42.8378 14.3289 42.913 14.47 42.8054 14.6397C42.7849 14.6733 42.7961 14.7019 42.803 14.7317C42.8577 14.9841 42.839 15.249 42.8347 15.5088C42.8322 15.6419 42.862 15.7712 42.8626 15.9036C42.8633 15.9272 42.8452 15.9527 42.8378 15.9776C42.8284 16.0087 42.8129 16.0404 42.8148 16.0702C42.8365 16.3805 42.7768 16.6963 42.8235 17.0022C42.8334 17.073 42.7016 17.4193 42.7184 17.4989C42.7265 17.5449 42.5505 17.7016 42.5798 17.7401" fill="#231F20"/>
<path fill-rule="evenodd" clip-rule="evenodd" d="M22.4505 18.8311C22.3181 18.8137 22.3858 18.6365 22.5798 18.3773C22.6414 18.2946 22.8782 18.0981 22.9292 18.0894C23.028 18.0714 23.1244 18.0546 23.2027 18.0527C23.2487 18.0565 23.7007 18.2964 23.8729 18.3474C24.0333 18.4059 24.1639 18.4941 24.2895 18.5905L25.0883 19.1482C25.148 19.1898 25.1978 19.2451 25.2425 19.311C25.3917 19.5411 25.6056 19.6872 25.8412 19.8003C25.8804 19.819 25.9133 19.8507 25.9768 19.8277C26.0768 19.7916 26.6886 20.1553 26.7508 20.2386C26.8987 20.4438 27.0697 20.6166 27.2326 20.805C27.2562 20.8317 27.2979 20.833 27.2929 20.9026C27.2811 21.0636 27.3557 21.0798 27.4135 21.1258C27.4931 21.1904 27.5695 21.2626 27.6317 21.3564C27.6628 21.4024 27.6628 21.4988 27.6709 21.5809C27.679 21.6555 27.5459 21.8295 27.5204 21.842C27.4458 21.8774 27.4247 21.9843 27.3818 22.0645C27.3675 22.0913 27.3482 22.1261 27.3339 22.1466C27.301 22.1901 26.6159 22.2231 26.5624 22.1901C26.5562 22.187 26.3566 22.1062 26.144 22.0185C25.9314 21.9334 25.7076 21.8451 25.6578 21.832C25.6062 21.819 25.5795 21.7636 25.5459 21.7195C25.5316 21.7033 24.8701 21.4484 24.8471 21.4279C24.7315 21.339 24.5761 21.3055 24.5232 21.1189C24.5133 21.0823 24.4841 21.0717 24.4586 21.0586C24.2335 20.938 24.0501 20.754 23.8617 20.5787C23.7641 20.4904 23.6485 20.4245 23.5434 20.3449C23.5248 20.3306 23.5179 20.3008 23.5043 20.2797C23.4869 20.2535 23.4757 20.2181 23.452 20.2007C23.2034 20.0098 23.015 19.75 22.7533 19.5678C22.6892 19.5274 22.5562 19.1699 22.4872 19.1233C22.4455 19.0966 22.5021 18.8379 22.4505 18.8311" fill="#231F20"/>
</g>
<defs>
<filter id="filter0_d_211_16" x="0" y="0" width="94.0112" height="96.0112" filterUnits="userSpaceOnUse" color-interpolation-filters="sRGB">
<feFlood flood-opacity="0" result="BackgroundImageFix"/>
<feColorMatrix in="SourceAlpha" type="matrix" values="0 0 0 0 0 0 0 0 0 0 0 0 0 0 0 0 0 0 127 0" result="hardAlpha"/>
<feOffset dx="2" dy="4"/>
<feComposite in2="hardAlpha" operator="out"/>
<feColorMatrix type="matrix" values="0 0 0 0 0 0 0 0 0 0 0 0 0 0 0 0 0 0 1 0"/>
<feBlend mode="normal" in2="BackgroundImageFix" result="effect1_dropShadow_211_16"/>
<feBlend mode="normal" in="SourceGraphic" in2="effect1_dropShadow_211_16" result="shape"/>
</filter>
</defs>
</svg>
