<svg width="529" height="572" viewBox="0 0 529 572" fill="none" xmlns="http://www.w3.org/2000/svg">
<rect x="21" y="17" width="484" height="536" fill="white"/>
<path d="M22.2903 3.39062C22.2903 63.1175 22.9267 87.1203 22.9267 150.639M22.9267 150.639C22.9267 214.158 22.8283 329.929 22.2903 407.738C21.7523 485.547 21.3349 561.284 21.3349 561.284C21.3349 572.274 20.158 559.305 20.2439 553.457C20.3512 546.147 21.3808 338.177 21.3808 320.022C21.3808 301.866 22.2903 209.446 22.9267 150.639Z" stroke="black" stroke-width="6.28125" stroke-miterlimit="10" stroke-linecap="round" stroke-linejoin="round"/>
<path d="M425.299 552.718C504.665 552.718 493.58 552.718 519.656 552.718C519.208 553.004 515.164 554.098 513.496 554.319C511.41 554.596 456.694 554.445 445.016 554.445C405.041 554.445 224.457 553.412 212.639 553.412M425.299 552.718C425.299 552.718 233.879 554.445 203.35 554.445C172.82 554.445 180.041 554.492 115.589 554.445C67.4038 554.41 9.78508 554.445 5.90773 554.445C2.03039 554.445 3.46108 552.373 3.46108 552.373C30.5635 553.412 77.7318 553.412 139.68 553.412C161.027 553.412 185.996 553.412 212.639 553.412M425.299 552.718C367.28 552.718 285.052 553.412 212.639 553.412" stroke="black" stroke-width="6.28125" stroke-miterlimit="10" stroke-linecap="round" stroke-linejoin="round"/>
<path d="M504.421 286.75C504.422 356.257 505.838 399.989 505.838 445.435C505.838 490.882 505.115 567.873 505.115 567.873C505.115 567.873 503.448 571.117 503.448 564.777C503.448 558.437 504.538 513.366 504.421 448.591C504.304 383.817 504.31 315.942 504.421 286.75ZM504.421 286.75C504.421 253.985 503.664 187.055 503.709 149.811C503.759 108.047 503.709 47.9049 503.709 7.57812" stroke="black" stroke-width="6.28125" stroke-miterlimit="10" stroke-linecap="round" stroke-linejoin="round"/>
<path d="M14.7188 17.9025C42.4786 17.9025 66.6984 17.9025 80.9787 17.9025M80.9787 17.9025C95.2589 17.9025 158.663 18.2077 185.51 18.2077M80.9787 17.9025C80.9787 17.9025 111.946 16.9524 130.103 16.9524C148.259 16.9524 185.51 18.2077 185.51 18.2077M524.891 18.2077C496.478 18.2077 509.615 17.9025 481.395 17.9025C465.309 17.9025 445.63 18.4111 417.42 18.2077M261.078 16.9524C280.601 16.9818 382.647 17.9569 417.42 18.2077M261.078 16.9524C240.886 16.922 212.356 18.2077 185.51 18.2077M261.078 16.9524C261.078 16.9524 310.033 16.9524 337.451 16.9524M417.42 18.2077C417.42 18.2077 364.869 16.9524 337.451 16.9524M185.51 18.2077C201.965 18.2077 240.116 18.2077 261.078 18.2077C282.04 18.2077 320.727 17.3709 337.451 16.9524" stroke="black" stroke-width="6.28125" stroke-miterlimit="10" stroke-linecap="round" stroke-linejoin="round"/>
</svg>
